# xmcd
#
# Track frame offsets:
#	150
#	17243
#	31487
#	49394
#	64576
#	79053
#	90837
#	104638
#	125808
#	140827
#
# Disc length: 2109 seconds
#
# Revision: 1
# Processed by: cddbd v1.5.2PL0 Copyright (c) Steve Scherf et al.
# Submitted via: audiograbber 1.83.01
#
DISCID=8c083b0a
DTITLE=Motherjumpers - The Motherjumpers
DYEAR=2006
DGENRE=Rock
TTITLE0=Most Days
TTITLE1=Search-Roam
TTITLE2=Less (No. 2)
TTITLE3=Simple
TTITLE4=Gone By Fall
TTITLE5=Crowned
TTITLE6=Constructing A Face
TTITLE7=Words I Never Said
TTITLE8=Drivel
TTITLE9=Thorns and Coal
EXTD=
EXTT0=
EXTT1=
EXTT2=
EXTT3=
EXTT4=
EXTT5=
EXTT6=
EXTT7=
EXTT8=
EXTT9=
PLAYORDER=
